<svg xmlns="http://www.w3.org/2000/svg" width="13" height="13" fill="#00cce2" viewBox="0 0 10 10"><g id="Ebene_2" data-name="Ebene 2"><g id="Ebene_1-2" data-name="Ebene 1"><path d="M10,5A4.82,4.82,0,0,1,8.53,8.54,4.82,4.82,0,0,1,5,10,4.86,4.86,0,0,1,1.46,8.54,4.85,4.85,0,0,1,0,5,5,5,0,0,1,1.46,1.47l.71.7A4,4,0,0,0,1,5,3.84,3.84,0,0,0,2.17,7.83,3.85,3.85,0,0,0,5,9,3.84,3.84,0,0,0,7.82,7.83,3.83,3.83,0,0,0,9,5,3.91,3.91,0,0,0,7.74,2.12L6.33,3.53V0H9.87L8.45,1.41A4.89,4.89,0,0,1,10,5"/></g></g></svg>